<svg xmlns="http://www.w3.org/2000/svg" width="20" height="26" viewBox="0 0 20 26">
  <metadata><?xpacket begin="﻿" id="W5M0MpCehiHzreSzNTczkc9d"?>
<x:xmpmeta xmlns:x="adobe:ns:meta/" x:xmptk="Adobe XMP Core 5.6-c138 79.159824, 2016/09/14-01:09:01        ">
   <rdf:RDF xmlns:rdf="http://www.w3.org/1999/02/22-rdf-syntax-ns#">
      <rdf:Description rdf:about=""/>
   </rdf:RDF>
</x:xmpmeta>
                                                                                                    
                                                                                                    
                                                                                                    
                                                                                                    
                                                                                                    
                                                                                                    
                                                                                                    
                                                                                                    
                                                                                                    
                                                                                                    
                                                                                                    
                                                                                                    
                                                                                                    
                                                                                                    
                                                                                                    
                                                                                                    
                                                                                                    
                                                                                                    
                                                                                                    
                                                                                                    
                           
<?xpacket end="w"?></metadata>
<defs>
    <style>
      .cls-1 {
        fill: #fff;
        fill-rule: evenodd;
      }
    </style>
  </defs>
  <path id="Rounded_Rectangle_1" data-name="Rounded Rectangle 1" class="cls-1" d="M937.99,3527.07a9.965,9.965,0,1,1-10,9.96A9.98,9.98,0,0,1,937.99,3527.07Zm0.01,1.3a8.665,8.665,0,1,1-8.7,8.66A8.679,8.679,0,0,1,938,3528.37Zm-0.009,5.64a3.03,3.03,0,1,1-3.044,3.03A3.039,3.039,0,0,1,937.991,3534.01Zm3.922-5.81v-1.57a3.913,3.913,0,0,0-7.826,0v1.52a9.413,9.413,0,0,0-1.739,1v-2.52a5.652,5.652,0,0,1,11.3,0v2.6A9.549,9.549,0,0,0,941.913,3528.2Z" transform="translate(-928 -3521)"/>
</svg>
