<svg xmlns="http://www.w3.org/2000/svg" width="174" height="36" viewBox="0 0 174 36">
  <metadata><?xpacket begin="﻿" id="W5M0MpCehiHzreSzNTczkc9d"?>
<x:xmpmeta xmlns:x="adobe:ns:meta/" x:xmptk="Adobe XMP Core 5.6-c138 79.159824, 2016/09/14-01:09:01        ">
   <rdf:RDF xmlns:rdf="http://www.w3.org/1999/02/22-rdf-syntax-ns#">
      <rdf:Description rdf:about=""/>
   </rdf:RDF>
</x:xmpmeta>
                                                                                                    
                                                                                                    
                                                                                                    
                                                                                                    
                                                                                                    
                                                                                                    
                                                                                                    
                                                                                                    
                                                                                                    
                                                                                                    
                                                                                                    
                                                                                                    
                                                                                                    
                                                                                                    
                                                                                                    
                                                                                                    
                                                                                                    
                                                                                                    
                                                                                                    
                                                                                                    
                           
<?xpacket end="w"?></metadata>
<defs>
    <style>
      .cls-1 {
        fill: #fff;
        fill-rule: evenodd;
      }
    </style>
  </defs>
  <path class="cls-1" d="M58.382,104.315c-3.379-3.737-1.862,1.706-7.586,1.706s-4.207-5.443-7.586-1.706A14.857,14.857,0,0,0,39,114.592l0,0.01c0.052,0.285,1.44,7.6,11.8,10.579,0.193-.019,11.785-1.429,11.785-10.589h0A14.857,14.857,0,0,0,58.382,104.315Zm-7.595,16.858c-6.407,0-9.133-3.545-9.133-6.585a5.457,5.457,0,0,1,5.407-5.5,5.336,5.336,0,0,1,3.726,1.518,5.336,5.336,0,0,1,3.726-1.518,5.457,5.457,0,0,1,5.407,5.5C59.92,117.628,57.195,121.173,50.787,121.173ZM45.966,115a1.154,1.154,0,1,1,1.154,1.176A1.165,1.165,0,0,1,45.966,115Zm7.018,0a1.154,1.154,0,1,1,1.154,1.176A1.165,1.165,0,0,1,52.984,115ZM39,116.717C39,129.974,49.557,139,62.58,139c0,0,0-1.106,0-3.107,0-3.862-.348-7.137-9.272-9.008C41.1,124.326,39,116.717,39,116.717m23.582,1.373c-1.3,5.375-9.217,7.563-10.311,7.6,0.432,0.105.575,0.13,1.037,0.221,7.2,1.419,8.659,3.839,9.272,5.77l0-13.588M84.43,131.554H84.1a8.094,8.094,0,0,1-6.065-2.656,8.734,8.734,0,0,1-2.536-6.23,8.833,8.833,0,0,1,8.895-8.775,8.375,8.375,0,0,1,6.4,2.881v1.908a8.59,8.59,0,0,0-2.885-2.731,7.22,7.22,0,0,0-8.968,1.291,7.778,7.778,0,0,0,0,10.964A7.218,7.218,0,0,0,87.9,129.5a8.456,8.456,0,0,0,2.885-2.769v1.946A8.185,8.185,0,0,1,84.43,131.554Zm15.768-1.2v1.048a6.163,6.163,0,0,1-4.447-1.778,6.044,6.044,0,0,1-1.838-4.546V103h1.176v22.077a5.136,5.136,0,0,0,1.489,3.779A4.913,4.913,0,0,0,100.2,130.357Zm9.74,1.16h-0.331a8.2,8.2,0,0,1-6.083-2.676,8.676,8.676,0,0,1-2.591-6.23,8.457,8.457,0,0,1,2.573-6.155,8.594,8.594,0,0,1,6.359-2.6,8.414,8.414,0,0,1,6.506,3.069l-11.542,11.6a7.389,7.389,0,0,0,4.6,1.946,7.634,7.634,0,0,0,3.951-1.029,8.76,8.76,0,0,0,2.885-2.75V128.6A8.177,8.177,0,0,1,109.938,131.517ZM109.552,114.9a7.068,7.068,0,0,0-5.182,2.3,7.344,7.344,0,0,0-2.261,5.3,7.741,7.741,0,0,0,1.948,5.238l10.7-10.813A7.62,7.62,0,0,0,109.552,114.9Zm24.24-.674h1.066l-8.123,17.324-8.16-17.324h1.287l6.984,14.78Zm12.46,17.287h-0.33a8.2,8.2,0,0,1-6.083-2.676,8.673,8.673,0,0,1-2.592-6.23,8.461,8.461,0,0,1,2.573-6.155,8.594,8.594,0,0,1,6.359-2.6,8.414,8.414,0,0,1,6.506,3.069l-11.542,11.6a7.391,7.391,0,0,0,4.595,1.946,7.634,7.634,0,0,0,3.951-1.029,8.741,8.741,0,0,0,2.885-2.75V128.6A8.177,8.177,0,0,1,146.252,131.517ZM145.867,114.9a7.07,7.07,0,0,0-5.183,2.3,7.344,7.344,0,0,0-2.261,5.3,7.741,7.741,0,0,0,1.948,5.238l10.7-10.813A7.616,7.616,0,0,0,145.867,114.9Zm16.411-.038a4.711,4.711,0,0,0-3.437,1.5,4.786,4.786,0,0,0-1.489,3.48v11.225h-1.176V114.23h1.176v2.507a5.246,5.246,0,0,1,2.059-2.1,6.043,6.043,0,0,1,3.124-.823,5.409,5.409,0,0,1,3.308,1.2v1.5A4.918,4.918,0,0,0,162.278,114.866Zm22.053-.636h1.176V129.5a9.616,9.616,0,0,1-2.352,6.848,8.077,8.077,0,0,1-6.175,2.507,9.177,9.177,0,0,1-4.08-.973,7.952,7.952,0,0,1-3.088-2.545v-1.721a7.681,7.681,0,0,0,3,2.994,8.149,8.149,0,0,0,4.172,1.2,6.88,6.88,0,0,0,5.292-2.227,8.6,8.6,0,0,0,2.059-6.08V126.99a7.577,7.577,0,0,1-3.124,3.292,8.693,8.693,0,0,1-4.411,1.235,8.375,8.375,0,0,1-6.175-2.6,8.829,8.829,0,0,1,0-12.46,8.379,8.379,0,0,1,6.175-2.6,8.691,8.691,0,0,1,4.466,1.217,7.452,7.452,0,0,1,3.069,3.348v-4.19Zm-15.107,8.456a7.552,7.552,0,0,0,2.261,5.482,7.267,7.267,0,0,0,5.366,2.3,7.091,7.091,0,0,0,5.311-2.3,7.914,7.914,0,0,0,0-10.964,7.09,7.09,0,0,0-5.311-2.3,7.266,7.266,0,0,0-5.366,2.3A7.555,7.555,0,0,0,169.224,122.686Zm21.76-12.535a1.011,1.011,0,1,1,1.065-1.01A0.919,0.919,0,0,1,190.984,110.151Zm0.587,4.116v16.8H190.4v-16.8h1.176Zm20.253-.037H213V129.5a9.616,9.616,0,0,1-2.352,6.848,8.078,8.078,0,0,1-6.176,2.507,9.176,9.176,0,0,1-4.079-.973,7.938,7.938,0,0,1-3.088-2.545v-1.721a7.681,7.681,0,0,0,3,2.994,8.148,8.148,0,0,0,4.171,1.2,6.882,6.882,0,0,0,5.293-2.227,8.609,8.609,0,0,0,2.059-6.08V126.99a7.573,7.573,0,0,1-3.125,3.292,8.687,8.687,0,0,1-4.41,1.235,8.373,8.373,0,0,1-6.175-2.6,8.829,8.829,0,0,1,0-12.46,8.377,8.377,0,0,1,6.175-2.6,8.691,8.691,0,0,1,4.466,1.217,7.452,7.452,0,0,1,3.069,3.348v-4.19Zm-15.107,8.456a7.548,7.548,0,0,0,2.261,5.482,7.266,7.266,0,0,0,5.366,2.3,7.092,7.092,0,0,0,5.311-2.3,7.917,7.917,0,0,0,0-10.964,7.091,7.091,0,0,0-5.311-2.3,7.265,7.265,0,0,0-5.366,2.3A7.551,7.551,0,0,0,196.717,122.686Z" transform="translate(-39 -103)"/>
</svg>
